<?xml version="1.0" encoding="UTF-8"?>
<svg version="1.1" xmlns="http://www.w3.org/2000/svg" width="650" height="560">
<path d="M0 0 C26.4420369 16.40564333 57.27627446 29.69975782 88.875 30.1875 C89.69403809 30.20651367 90.51307617 30.22552734 91.35693359 30.24511719 C126.74854308 31.00355322 159.95397492 23.58892529 191.875 8.1875 C192.94621094 7.67316406 194.01742188 7.15882812 195.12109375 6.62890625 C199.75227329 4.25871867 203.51746973 1.75293769 207.3125 -1.8125 C219.97038862 -13.59199421 235.89658204 -15.59440726 252.46484375 -15.15625 C259.68763846 -14.8041026 266.06306009 -13.30847798 272.875 -10.8125 C273.53193848 -10.58175781 274.18887695 -10.35101562 274.86572266 -10.11328125 C285.57951903 -6.27368416 293.07380663 -1.03223728 300.875 7.1875 C302.03322266 8.35345703 302.03322266 8.35345703 303.21484375 9.54296875 C308.00418871 14.58203747 311.24122685 19.76268973 313.875 26.1875 C314.35453125 27.33992188 314.35453125 27.33992188 314.84375 28.515625 C318.03031301 37.42619935 318.52072406 47.85132391 315.125 56.75 C314.41015581 58.24647313 313.66356055 59.7285256 312.875 61.1875 C312.318125 62.26 311.76125 63.3325 311.1875 64.4375 C305.74486608 70.90982141 298.52899027 74.77274024 290.10546875 75.5234375 C278.62792685 75.78109086 271.12243139 73.92901655 262.59765625 65.98046875 C256.414572 59.54501371 254.521357 52.9427298 254.5625 44.1875 C254.54638672 43.50171875 254.53027344 42.8159375 254.51367188 42.109375 C254.50916116 37.38214528 255.40959671 34.20343403 257.875 30.1875 C262.0534783 26.0090217 266.39894556 24.23715792 272.3359375 24.15234375 C277.85020058 24.4918104 281.66081179 25.37466304 285.875 29.1875 C287.4377011 31.46318348 288.63440173 33.70630346 289.875 36.1875 C289.61170527 29.07854242 287.55377195 23.63359055 282.875 18.1875 C275.77948833 13.36167063 268.40996993 11.13722789 259.875 12.1875 C251.97523389 14.76677942 246.55856414 19.16552467 242.66015625 26.4609375 C234.51951401 43.90103226 238.3150931 67.6721896 244.65625 85.23046875 C252.4917476 104.24159595 264.6467769 120.71298339 278.5703125 135.69921875 C280.57726197 137.86604385 282.51723282 140.06923857 284.4375 142.3125 C286.9220048 145.18102662 289.53412405 147.8497929 292.25 150.5 C297.21558957 155.40657577 301.52752846 160.73566181 305.875 166.1875 C306.54402344 166.97769531 307.21304687 167.76789063 307.90234375 168.58203125 C333.52789778 199.18046508 342.3074166 237.3523173 339.63671875 276.48046875 C336.43346783 305.6332877 322.80162124 334.26777729 304.875 357.1875 C304.07449219 358.21488281 303.27398438 359.24226563 302.44921875 360.30078125 C297.87496149 366.04231309 297.87496149 366.04231309 295.875 368.1875 C295.215 368.1875 294.555 368.1875 293.875 368.1875 C293.875 368.8475 293.875 369.5075 293.875 370.1875 C293.215 370.1875 292.555 370.1875 291.875 370.1875 C291.60292725 370.78643066 291.33085449 371.38536133 291.05053711 372.00244141 C289.16595814 375.50544905 286.33246722 377.87831326 283.4375 380.5625 C282.78007812 381.17246826 282.12265625 381.78243652 281.4453125 382.41088867 C264.57795567 397.73324901 245.40315446 409.49067626 224.875 419.1875 C223.82828125 419.68765625 222.7815625 420.1878125 221.703125 420.703125 C194.74016226 432.91023748 166.09791339 439.50241374 136.875 443.1875 C135.894245 443.31791939 135.894245 443.31791939 134.89367676 443.45097351 C128.75490847 444.21275255 122.67390057 444.37960418 116.4921875 444.42578125 C115.41202362 444.4355751 114.33185974 444.44536896 113.21896362 444.45545959 C39.75309214 444.98414015 -31.44584166 428.07386703 -85.71484375 375.6875 C-115.87464076 345.93588069 -136.9549701 306.84782747 -137.41772461 263.76635742 C-137.50514975 249.52579639 -137.21370878 235.94679246 -133.125 222.1875 C-132.88362305 221.36540039 -132.64224609 220.54330078 -132.39355469 219.69628906 C-124.53221054 193.73902066 -109.99809745 172.6071801 -91.60546875 152.9140625 C-89.09629494 150.23001251 -89.09629494 150.23001251 -86.92578125 147.3359375 C-86.33152344 146.62695312 -85.73726562 145.91796875 -85.125 145.1875 C-84.465 145.1875 -83.805 145.1875 -83.125 145.1875 C-82.8671875 144.61515625 -82.609375 144.0428125 -82.34375 143.453125 C-81.01134058 140.97621005 -79.47443882 139.0533834 -77.625 136.9375 C-77.0165625 136.23109375 -76.408125 135.5246875 -75.78125 134.796875 C-74.125 133.1875 -74.125 133.1875 -72.125 133.1875 C-71.87878906 132.62933594 -71.63257813 132.07117188 -71.37890625 131.49609375 C-69.89325801 128.76083484 -68.08244807 126.6190749 -66.0625 124.25 C-45.30977099 99.08814485 -34.09486659 72.05632661 -36.125 39.1875 C-37.30950154 30.46797604 -40.06933188 22.1803288 -47.1875 16.55859375 C-54.21244972 12.02595156 -61.12541164 10.96054779 -69.37890625 12.6484375 C-76.05290887 14.86875148 -81.19182628 19.00201805 -84.5625 25.1875 C-86.10693371 28.60497034 -86.50253641 31.41213593 -86.125 35.1875 C-85.7846875 34.64480469 -85.444375 34.10210937 -85.09375 33.54296875 C-82.07686941 29.08986044 -79.58590813 26.07046817 -74.33203125 24.5234375 C-68.77521201 23.67762077 -63.3357043 24.31060436 -58.25 26.75 C-54.26736222 29.85645747 -52.40124223 32.29397949 -51.125 37.1875 C-49.97701743 47.1287924 -51.03235956 55.45599248 -56.890625 63.66015625 C-61.88037106 69.70089213 -66.69447762 72.71065921 -74.125 75.1875 C-84.16213473 75.93733931 -92.55673371 76.13529048 -101.125 70.1875 C-102.053125 69.589375 -102.98125 68.99125 -103.9375 68.375 C-110.38410907 61.92839093 -113.30696219 54.3216863 -113.50561523 45.18798828 C-113.46322406 29.14200786 -108.55797864 16.84406238 -97.5625 5 C-69.52774507 -21.71996309 -30.68434009 -19.26691122 0 0 Z M8.875 40.1875 C8.72804688 41.31542969 8.58109375 42.44335938 8.4296875 43.60546875 C2.64211428 85.23302554 -17.67992479 122.28036309 -40.125 157.1875 C-44.28638338 163.68625744 -48.43333446 170.19393773 -52.55761719 176.71630859 C-53.52449915 178.24072903 -54.49561887 179.76248258 -55.47363281 181.27978516 C-72.2856934 207.37140437 -82.68590928 238.62014004 -76.25390625 269.72265625 C-72.2649188 286.67357088 -63.95381788 300.58273926 -52.125 313.1875 C-51.01511719 314.39986328 -51.01511719 314.39986328 -49.8828125 315.63671875 C-32.93272061 333.42500199 -10.38526542 344.95272617 12.5 353.125 C13.35376221 353.43203857 14.20752441 353.73907715 15.0871582 354.05541992 C16.30085083 354.47464722 16.30085083 354.47464722 17.5390625 354.90234375 C18.25529785 355.15105225 18.9715332 355.39976074 19.70947266 355.65600586 C22.31268125 356.38613323 22.31268125 356.38613323 26.875 356.1875 C26.38 202.7375 26.38 202.7375 25.875 46.1875 C17.5899008 42.07160989 17.5899008 42.07160989 8.875 40.1875 Z M185.3125 43.0625 C183.54712891 43.61550781 183.54712891 43.61550781 181.74609375 44.1796875 C179.01120324 44.90696454 179.01120324 44.90696454 177.875 46.1875 C177.77709278 47.7661914 177.74944471 49.34928006 177.74915886 50.93100452 C177.74655111 51.96364707 177.74394336 52.99628961 177.74125659 54.06022435 C177.74348732 55.20862867 177.74571804 56.35703298 177.74801636 57.54023743 C177.74645637 58.74952367 177.74489638 59.9588099 177.74328911 61.20474118 C177.73997558 64.57700294 177.74118855 67.94920951 177.74427533 71.321468 C177.74652767 74.95293602 177.74305047 78.58439904 177.74029541 82.21586609 C177.73583545 89.33920361 177.7368156 96.46253063 177.73970805 103.58586857 C177.74196315 109.37903093 177.74227413 115.17219034 177.74118423 120.96535301 C177.741031 121.7888105 177.74087777 122.61226798 177.74071989 123.46067872 C177.74040017 125.13347442 177.74007596 126.80627011 177.7397473 128.4790658 C177.73689135 144.19019921 177.74018031 159.90132681 177.74554767 175.61245926 C177.75000668 189.08091653 177.74924746 202.54936516 177.74462891 216.01782227 C177.73926941 231.65431221 177.73717568 247.29079702 177.74024117 262.92728776 C177.74055971 264.59741636 177.74087408 266.26754496 177.74118423 267.93767357 C177.74133851 268.75939489 177.74149279 269.58111622 177.74165174 270.42773819 C177.74251345 276.20546657 177.74106127 281.9831917 177.73870468 287.76091957 C177.73589082 294.81514866 177.73667793 301.86936663 177.74198543 308.92359445 C177.74460249 312.51994245 177.74566166 316.11627195 177.74233627 319.71261978 C177.73877725 323.621071 177.74304496 327.52949236 177.74801636 331.4379425 C177.74578564 332.56180888 177.74355491 333.68567526 177.74125659 334.84359819 C177.75884956 342.00376477 178.17355217 349.06200011 178.875 356.1875 C185.66433769 354.88581063 191.62368349 352.85122993 197.9375 350.0625 C198.84999512 349.66434082 199.76249023 349.26618164 200.70263672 348.85595703 C216.10026188 342.07088221 232.44539171 334.81915813 244.875 323.1875 C244.875 322.5275 244.875 321.8675 244.875 321.1875 C245.42800781 320.95546875 245.98101562 320.7234375 246.55078125 320.484375 C261.73084898 312.01415234 272.30050657 291.19324453 277.16015625 275.140625 C285.46619347 245.35800723 277.56173964 215.62641293 262.875 189.1875 C258.11562093 181.03599621 253.02234029 173.09779243 247.875 165.1875 C247.10639648 164.00414062 247.10639648 164.00414062 246.32226562 162.796875 C245.38769208 161.35867724 244.45281019 159.92067979 243.51757812 158.48291016 C227.30546399 133.55172583 213.14757868 108.17193634 202.875 80.1875 C202.59543457 79.42888672 202.31586914 78.67027344 202.02783203 77.88867188 C198.65821421 68.53969935 196.7701811 59.0828083 195.21728516 49.2824707 C195.06952637 48.37585693 194.92176758 47.46924316 194.76953125 46.53515625 C194.64425049 45.72054932 194.51896973 44.90594238 194.38989258 44.06665039 C194.21997803 43.44653076 194.05006348 42.82641113 193.875 42.1875 C190.74750951 40.62375475 188.56520303 42.02706215 185.3125 43.0625 Z M48.875 52.1875 C47.69194542 55.73666374 47.69962338 58.97444425 47.67066956 62.66990662 C47.66087195 63.44056424 47.65107433 64.21122187 47.64097983 65.00523275 C47.60938582 67.60168325 47.58498022 70.19814838 47.56079102 72.79467773 C47.54021716 74.65833163 47.51934246 76.52198223 47.49818993 78.38562965 C47.44202475 83.49214215 47.39313224 88.59870048 47.34630275 93.70530629 C47.31629036 96.94610768 47.28463141 100.18688946 47.2525959 103.42767143 C46.76582806 153.1862113 46.75415117 202.94390643 46.80297244 252.70432889 C46.81452508 264.69888098 46.8197394 276.69343397 46.82467639 288.68799031 C46.83488965 313.18783307 46.85225404 337.68766587 46.875 362.1875 C50.12301825 362.72123082 53.37361491 363.23721268 56.625 363.75 C57.54539062 363.90146484 58.46578125 364.05292969 59.4140625 364.20898438 C60.30351562 364.34755859 61.19296875 364.48613281 62.109375 364.62890625 C63.33479004 364.82528687 63.33479004 364.82528687 64.58496094 365.02563477 C67.18927293 365.32875118 67.18927293 365.32875118 70.875 364.1875 C70.875 262.5475 70.875 160.9075 70.875 56.1875 C59.94737155 53.45661832 59.94737155 53.45661832 48.875 52.1875 Z M133.875 55.1875 C133.875 157.4875 133.875 259.7875 133.875 365.1875 C145.40112001 363.87134892 145.40112001 363.87134892 156.875 362.1875 C156.875 259.5575 156.875 156.9275 156.875 51.1875 C149.09325498 51.1875 141.48982492 53.58437897 133.875 55.1875 Z M90.875 57.1875 C90.875 159.4875 90.875 261.7875 90.875 367.1875 C98.465 367.1875 106.055 367.1875 113.875 367.1875 C113.875 264.8875 113.875 162.5875 113.875 57.1875 C106.285 57.1875 98.695 57.1875 90.875 57.1875 Z " fill="#3C9AAA" transform="translate(223.125,22.8125)"/>
<path d="M0 0 C6.60789005 6.08435272 9.38687724 13.78181521 10.04296875 22.58984375 C10.94839988 45.79151646 -1.36975889 65.74442467 -16.11328125 82.4921875 C-16.65082031 83.11351562 -17.18835938 83.73484375 -17.7421875 84.375 C-26.22302061 93.51474495 -37.71986012 100.64358272 -49.11328125 105.4921875 C-50.304375 106.00072266 -50.304375 106.00072266 -51.51953125 106.51953125 C-61.55936722 110.15060526 -73.96787182 110.01415325 -83.77734375 105.81640625 C-90.96599221 101.74123597 -95.21270233 95.43466426 -97.69921875 87.66015625 C-100.99406133 70.40885782 -94.22989008 54.36875968 -84.9765625 40.2265625 C-70.55695057 20.44813608 -49.77588015 -1.1240563 -24.5078125 -5.22265625 C-15.58834007 -6.28484465 -7.54485308 -5.38320386 0 0 Z M-61.11328125 33.4921875 C-61.80164063 34.18828125 -62.49 34.884375 -63.19921875 35.6015625 C-71.00086228 43.74015409 -78.1420772 54.27748413 -78.10546875 65.9921875 C-77.6598036 72.50277406 -76.15946431 77.03676783 -71.92578125 82.1171875 C-66.6250834 86.59333235 -61.59421331 89.2396969 -54.53125 88.875 C-40.23532193 86.61167052 -29.17348031 77.25833658 -20.11328125 66.4921875 C-13.10894323 56.70835027 -8.30299646 45.71160983 -10.11328125 33.4921875 C-12.1645538 26.82555171 -15.11562516 22.6835131 -21.24609375 19.33203125 C-35.7930571 12.78894104 -51.4541404 22.84236554 -61.11328125 33.4921875 Z " fill="#3B99AA" transform="translate(627.11328125,351.5078125)"/>
<path d="M0 0 C1.8671875 1.890625 1.8671875 1.890625 3.875 4.25 C6.69194353 7.5206794 9.52686916 10.53155944 12.734375 13.421875 C13.37648926 14.01452148 14.01860352 14.60716797 14.68017578 15.21777344 C15.95418139 16.38526539 17.24913254 17.5303949 18.56591797 18.64941406 C21.11590206 21.02437874 22.85558985 22.70729848 23.25219727 26.25756836 C23.02661511 28.90690838 22.56907271 31.40289912 22 34 C21.83113281 34.89219238 21.66226563 35.78438477 21.48828125 36.70361328 C20.91851075 39.6634265 20.30266112 42.61180802 19.6875 45.5625 C15.64925228 65.74636952 12.92841119 86.47172831 12.17578125 107.05078125 C12.02791342 109.53167477 11.71894831 111.63273118 11 114 C-6.921004 105.15454011 -6.921004 105.15454011 -12 98 C-13.01389617 93.08513608 -12.1867528 88.54515896 -10.97412109 83.72949219 C-10.328366 81.02129915 -9.83897649 78.78348767 -10 76 C-12.16468127 72.96840084 -14.96970801 71.11348905 -18 69 C-19.23251082 67.92501492 -20.44707982 66.82902772 -21.640625 65.7109375 C-22.23020996 65.16864502 -22.81979492 64.62635254 -23.42724609 64.06762695 C-28.91622363 58.97050918 -34.2816188 53.80727301 -39.375 48.3125 C-39.87378662 47.78487061 -40.37257324 47.25724121 -40.88647461 46.71362305 C-43.26902484 44.13601022 -45.12747568 41.78522279 -46.93359375 38.7421875 C-49.08736283 35.24063361 -50.49378703 33.19865973 -54 31 C-57.77735826 30.75396517 -61.48625343 31.1572158 -65.25 31.5 C-75.22362197 32.38467353 -75.22362197 32.38467353 -79.30957031 29.19970703 C-83.33620095 24.56166787 -86.33160835 19.34363756 -89.05810547 13.85766602 C-89.86112884 12.03523731 -89.86112884 12.03523731 -91 11 C-91.04063832 9.33382885 -91.042721 7.66611905 -91 6 C-89.5919812 5.97812622 -89.5919812 5.97812622 -88.15551758 5.95581055 C-62.12584533 5.52186098 -36.24095017 4.61978677 -10.69580078 -0.90551758 C-9.4522583 -1.1630481 -9.4522583 -1.1630481 -8.18359375 -1.42578125 C-7.46743896 -1.58473877 -6.75128418 -1.74369629 -6.01342773 -1.9074707 C-3.45612334 -2.02499445 -2.15438376 -1.34014634 0 0 Z M-11.40234375 21.27734375 C-12.62244141 21.54353516 -13.84253906 21.80972656 -15.09960938 22.08398438 C-16.36611328 22.36564453 -17.63261719 22.64730469 -18.9375 22.9375 C-21.44635264 23.48947319 -23.95545891 24.04029509 -26.46484375 24.58984375 C-27.574646 24.83597412 -28.68444824 25.08210449 -29.82788086 25.33569336 C-32.87585342 25.97400117 -35.9248484 26.51127831 -39 27 C-35.58326495 31.8184725 -32.01525339 36.13255977 -27.765625 40.234375 C-26.00180699 41.99819301 -24.41347028 43.83816171 -22.8125 45.75 C-18.02755908 51.32511466 -12.46956309 56.11421622 -7 61 C-5.28573702 57.88554099 -4.37595513 54.91220488 -3.5625 51.45703125 C-3.30726562 50.38259766 -3.05203125 49.30816406 -2.7890625 48.20117188 C-2.39847656 46.5237793 -2.39847656 46.5237793 -2 44.8125 C-1.73960938 43.71357422 -1.47921875 42.61464844 -1.2109375 41.48242188 C-0.70192671 39.32683831 -0.2004151 37.16946785 0.29296875 35.01025391 C0.74203637 33.09830508 1.22056839 31.19285388 1.73828125 29.29833984 C2.47648725 26.66278531 2.47648725 26.66278531 3 23 C1.93414834 21.14102334 1.93414834 21.14102334 0 20 C-3.93663226 19.53990689 -7.5603881 20.42832208 -11.40234375 21.27734375 Z " fill="#3B9AAA" transform="translate(91,375)"/>
<path d="M0 0 C7.68270319 6.58517416 13.23412079 13.63731561 14.62109375 23.90625 C14.91757791 33.76434844 12.43412575 40.77616522 6.15234375 48.40234375 C-6.84263736 61.37537388 -25.8730291 65.04091523 -43.59765625 65.3359375 C-62.80562494 65.18528677 -83.37504972 60.17482964 -97.78515625 46.8984375 C-98.73455078 46.08439453 -98.73455078 46.08439453 -99.703125 45.25390625 C-106.09649221 39.43307939 -110.35625022 31.91359476 -110.84765625 23.17578125 C-110.61429925 14.6728357 -108.19966643 7.52822853 -102.78515625 0.8984375 C-77.10093538 -22.7941152 -27.04471857 -20.40681429 0 0 Z M-80.78125 9.53515625 C-84.89000193 14.38076037 -86.44732075 19.42041602 -86.12109375 25.83203125 C-84.88367937 33.44356857 -81.07377022 38.34925939 -75.2109375 43.17578125 C-63.41040642 51.55586854 -48.75620157 52.08292629 -34.78515625 50.8984375 C-25.85374799 49.12425256 -18.00348482 44.55513514 -12.84765625 36.9609375 C-10.03566384 31.95445101 -9.29804366 27.46339963 -10.47265625 21.8359375 C-12.64720946 14.44529913 -17.55615899 9.21546468 -23.78515625 4.8984375 C-41.81323856 -4.1974432 -65.61289439 -5.341032 -80.78125 9.53515625 Z " fill="#3B99A9" transform="translate(341.78515625,493.1015625)"/>
<path d="M0 0 C4.55866626 1.33159253 8.08330609 3.17778717 12.0625 5.75 C20.82318778 11.24640298 30.19638997 15.52993444 39.56860352 19.86230469 C51.58966848 25.47328805 65.28433142 32.52129906 70.5625 45.4375 C72.63051648 52.07353512 72.46909656 57.11621786 69.3125 63.3125 C65.15720109 68.14163116 60.33082223 71.1019324 54 72 C33.96339496 73.42227458 17.49097077 65.06750696 0.1875 56.03125 C-1.89844277 54.85786026 -1.89844277 54.85786026 -4 55 C-8.29 62.92 -12.58 70.84 -17 79 C-23.75112444 76.74962519 -23.75112444 76.74962519 -26.76171875 74.90625 C-27.40560547 74.51566406 -28.04949219 74.12507813 -28.71289062 73.72265625 C-29.69032227 73.11744141 -29.69032227 73.11744141 -30.6875 72.5 C-31.35072266 72.09652344 -32.01394531 71.69304687 -32.69726562 71.27734375 C-35.50030417 69.56672808 -38.2675324 67.82164506 -41 66 C-39.33770106 61.25455443 -36.81969523 57.1894008 -34.1875 52.9375 C-33.70321533 52.15020508 -33.21893066 51.36291016 -32.7199707 50.55175781 C-28.604702 43.89861987 -24.35976502 37.33308817 -20.07592773 30.78759766 C-15.11305729 23.20201212 -10.24822038 15.55601235 -5.4050293 7.89355469 C-4.84340088 7.00700195 -4.28177246 6.12044922 -3.703125 5.20703125 C-3.20458008 4.4178833 -2.70603516 3.62873535 -2.19238281 2.81567383 C-1 1 -1 1 0 0 Z M13 23 C8.05 31.91 8.05 31.91 3 41 C7.48149454 45.48149454 12.97453615 47.49497509 18.6875 50.125 C19.84701172 50.67542969 21.00652344 51.22585938 22.20117188 51.79296875 C32.4059738 56.75600394 32.4059738 56.75600394 43.3125 55.875 C46.3246377 53.77350858 47.65013688 52.41435965 49 49 C49 44.38328382 47.45804014 41.90461815 44.48275757 38.45599365 C42.10563235 36.12177577 39.43391262 34.8085997 36.45703125 33.3515625 C35.84736008 33.04930756 35.2376889 32.74705261 34.60954285 32.43563843 C33.33285455 31.80579967 32.05286294 31.18261578 30.76977539 30.56591797 C28.8008067 29.6193787 26.84233724 28.65345371 24.88476562 27.68359375 C19.17774298 24.42565531 19.17774298 24.42565531 13 23 Z " fill="#3B99A9" transform="translate(155,432)"/>
<path d="M0 0 C0.31114746 0.62753174 0.62229492 1.25506348 0.94287109 1.90161133 C9.98066166 20.10819897 19.31200025 38.13173557 29 56 C44.91325114 48.53723395 59.71784551 39.44737019 73.81298828 28.94580078 C77.79963055 26 77.79963055 26 80 26 C81.7265625 28.1875 81.7265625 28.1875 83.625 31 C84.25664063 31.928125 84.88828125 32.85625 85.5390625 33.8125 C86.02117187 34.534375 86.50328125 35.25625 87 36 C82.70735451 40.70607651 77.80243339 44.06692974 72.5 47.5625 C71.57437256 48.17456299 70.64874512 48.78662598 69.69506836 49.41723633 C53.20004318 60.20325 35.87757034 69.70025277 18 78 C16.74509766 78.59337158 16.74509766 78.59337158 15.46484375 79.19873047 C12.67196589 80.10663708 11.68800931 80.08633929 9 79 C7.82026672 77.27471924 7.82026672 77.27471924 6.8527832 74.99707031 C6.48171951 74.14397278 6.11065582 73.29087524 5.72834778 72.41192627 C5.14545235 71.00919464 5.14545235 71.00919464 4.55078125 69.578125 C4.1338652 68.60832703 3.71694916 67.63852905 3.28739929 66.63934326 C1.94827488 63.51539091 0.63014972 60.38306217 -0.6875 57.25 C-1.55526314 55.21555774 -2.42438991 53.18169653 -3.29492188 51.1484375 C-5.02279626 47.10843673 -6.73698967 43.06300325 -8.44287109 39.01367188 C-10.15105693 34.97048669 -11.90058261 30.94910147 -13.68603516 26.93945312 C-14.11028275 25.97835632 -14.53453033 25.01725952 -14.97163391 24.02703857 C-15.77596759 22.20881112 -16.58916372 20.39447005 -17.41252136 18.58477783 C-17.76856949 17.77530701 -18.12461761 16.96583618 -18.49145508 16.13183594 C-18.80810623 15.42734314 -19.12475739 14.72285034 -19.45100403 13.99700928 C-20.1100952 11.59952139 -19.88448606 10.30476842 -19 8 C-17.35766602 6.81152344 -17.35766602 6.81152344 -15.25390625 5.859375 C-14.49916016 5.51132812 -13.74441406 5.16328125 -12.96679688 4.8046875 C-12.17337891 4.45664062 -11.37996094 4.10859375 -10.5625 3.75 C-9.77294922 3.38648438 -8.98339844 3.02296875 -8.16992188 2.6484375 C-2.33041588 0 -2.33041588 0 0 0 Z " fill="#3B99A9" transform="translate(468,446)"/>
<path d="M0 0 C1.23202984 5.49936243 2.46084466 10.9994363 3.6875 16.5 C3.86918732 17.31434509 4.05087463 18.12869019 4.23806763 18.9677124 C6.77073071 30.3308349 9.24094552 41.70205746 11.53979492 53.11523438 C11.72131104 54.00791016 11.90282715 54.90058594 12.08984375 55.8203125 C12.24316162 56.58617676 12.39647949 57.35204102 12.55444336 58.14111328 C12.94438906 60.07745745 12.94438906 60.07745745 14 62 C29.11304574 58.44081706 43.91844165 54.69113702 58.53320312 49.40234375 C59.46068359 49.07363281 60.38816406 48.74492188 61.34375 48.40625 C62.15005859 48.11041016 62.95636719 47.81457031 63.78710938 47.50976562 C66.27628019 46.93635558 67.63413858 47.075048 70 48 C71.08203125 49.70703125 71.08203125 49.70703125 71.8125 51.8125 C72.06644531 52.49957031 72.32039063 53.18664062 72.58203125 53.89453125 C73.08786631 56.44261626 73.04255212 57.61015422 72 60 C69.59277344 61.26098633 69.59277344 61.26098633 66.359375 62.33203125 C65.15756592 62.73478271 63.95575684 63.13753418 62.7175293 63.55249023 C61.39544609 63.97383429 60.072924 64.39380334 58.75 64.8125 C58.08328278 65.028992 57.41656555 65.24548401 56.72964478 65.46853638 C11.43279904 80.17486592 11.43279904 80.17486592 -11 80 C-12.08737992 72.73115694 -13.17134637 65.46181016 -14.25317383 58.19213867 C-14.61994021 55.73011327 -14.98742794 53.26819519 -15.35571289 50.80639648 C-17.7361028 34.89058345 -19.99033376 18.96710872 -22 3 C-19.97499184 2.62900614 -17.94997512 2.25805883 -15.92489624 1.88745117 C-14.36986679 1.60223102 -12.8152957 1.31450912 -11.26098633 1.02539062 C-10.58318115 0.90357422 -9.90537598 0.78175781 -9.20703125 0.65625 C-8.5210083 0.53056641 -7.83498535 0.40488281 -7.12817383 0.27539062 C-4.73346426 -0.03449034 -2.41205311 -0.04422404 0 0 Z " fill="#3B99A9" transform="translate(389,474)"/>
</svg>
